<svg width="196" height="196" viewBox="0 0 196 196" fill="none" xmlns="http://www.w3.org/2000/svg">
<g clip-path="url(#clip0_1874_76)">
<path d="M98 16.8437C157.975 16.8437 179.156 38.1248 179.156 98C179.156 157.649 157.622 179.156 98 179.156C38.5537 179.156 16.8438 157.373 16.8438 98C16.8438 38.3996 38.1997 16.8437 98 16.8437Z" fill="#171717"/>
<path fill-rule="evenodd" clip-rule="evenodd" d="M91.144 108.869C86.895 118.988 76.8917 126.095 65.2285 126.095C49.7121 126.095 37.1335 113.517 37.1335 98.0003C37.1335 82.4839 49.7121 69.9054 65.2285 69.9054C76.8917 69.9054 86.895 77.0123 91.144 87.1319C95.5798 70.4665 109.973 57.8613 127.564 56.0753C130.418 55.7856 131.872 56.0356 131.872 59.3697V84.8308C131.872 86.7269 131.515 87.6714 127.564 87.6714C121.688 87.6714 117.906 92.8963 117.906 98.0003C117.906 103.819 121.303 108.536 127.564 108.536C131.872 108.536 131.872 106.127 131.872 103.158V90.9765C131.872 88.6353 132.695 87.4647 134.89 87.4647H148.306C150.457 87.4647 150.557 87.5051 151.793 89.219C151.793 89.219 157.182 96.6559 158.122 98.0003C159.061 99.3447 159.171 99.7562 158.122 101.322C157.072 102.888 151.793 110.262 151.793 110.262C150.561 112.001 150.474 112.048 148.306 112.048H138.232C132.98 112.048 131.872 115.682 131.872 118.962V135.753C131.872 139.666 131.179 140.292 127.564 139.925C109.973 138.139 95.5798 125.534 91.144 108.869ZM74.5934 98.0002C74.5934 103.172 70.4006 107.365 65.2284 107.365C60.0563 107.365 55.8635 103.172 55.8635 98.0002C55.8635 92.8281 60.0563 88.6353 65.2284 88.6353C70.4006 88.6353 74.5934 92.8281 74.5934 98.0002Z" fill="#FEFDF4"/>
</g>
<defs>
<clipPath id="clip0_1874_76">
<rect width="196" height="196" fill="white"/>
</clipPath>
</defs>
</svg>
