<svg width="252" height="252" viewBox="0 0 252 252" fill="none" xmlns="http://www.w3.org/2000/svg">
<path d="M126 21.6562C203.11 21.6562 230.344 49.0176 230.344 126C230.344 202.692 202.657 230.344 126 230.344C49.5691 230.344 21.6562 202.337 21.6562 126C21.6562 49.371 49.1139 21.6562 126 21.6562Z" fill="#FEFDF4"/>
<path fill-rule="evenodd" clip-rule="evenodd" d="M117.184 139.974C111.721 152.985 98.8598 162.122 83.8642 162.122C63.9146 162.122 47.7422 145.95 47.7422 126C47.7422 106.051 63.9146 89.8783 83.8642 89.8783C98.8598 89.8783 111.721 99.0158 117.184 112.027C122.887 90.5997 141.393 74.393 164.01 72.0968C167.679 71.7244 169.548 72.0457 169.548 76.3325V109.068C169.548 111.506 169.09 112.72 164.01 112.72C156.456 112.72 151.593 119.438 151.593 126C151.593 133.481 155.96 139.546 164.01 139.546C169.548 139.546 169.548 136.449 169.548 132.632V116.97C169.548 113.96 170.606 112.455 173.429 112.455H190.678C193.444 112.455 193.573 112.506 195.161 114.71C195.161 114.71 202.09 124.272 203.298 126C204.506 127.729 204.647 128.258 203.298 130.271C201.949 132.285 195.161 141.765 195.161 141.765C193.578 144.001 193.465 144.061 190.678 144.061H177.726C170.973 144.061 169.548 148.734 169.548 152.951V174.539C169.548 179.571 168.658 180.376 164.01 179.904C141.393 177.608 122.887 161.401 117.184 139.974ZM95.9049 126C95.9049 132.65 90.5141 138.041 83.8642 138.041C77.2143 138.041 71.8235 132.65 71.8235 126C71.8235 119.35 77.2143 113.96 83.8642 113.96C90.5141 113.96 95.9049 119.35 95.9049 126Z" fill="#171717"/>
</svg>
