<svg width="717" height="192" viewBox="0 0 717 192" fill="none" xmlns="http://www.w3.org/2000/svg">
<path d="M95.5479 0C166.158 0 191.097 25.0551 191.097 95.5479C191.097 165.775 165.743 191.097 95.5479 191.097C25.5599 191.097 0 165.45 0 95.5479C0.000171106 25.3788 25.1433 8.39983e-05 95.5479 0ZM394.114 66.4502C401.389 66.4502 407.759 67.7711 413.224 70.4131C418.689 73.0551 423.013 76.7647 426.198 81.542C429.383 86.3194 431.139 91.9298 431.465 98.3721H409.641C409.025 94.21 407.397 90.8616 404.755 88.3281C402.149 85.7585 398.729 84.4737 394.494 84.4736C390.911 84.4736 387.78 85.4509 385.102 87.4053C382.46 89.3235 380.397 92.1288 378.913 95.8203C377.429 99.5119 376.688 103.982 376.688 109.229C376.688 114.55 377.411 119.074 378.858 122.802C380.342 126.529 382.423 129.371 385.102 131.325C387.78 133.28 390.911 134.257 394.494 134.257C397.136 134.257 399.506 133.714 401.605 132.628C403.741 131.542 405.497 129.967 406.872 127.904C408.283 125.805 409.206 123.29 409.641 120.358H431.465C431.103 126.728 429.365 132.339 426.253 137.188C423.177 142.002 418.924 145.766 413.495 148.48C408.066 151.195 401.642 152.552 394.223 152.552C385.681 152.552 378.334 150.742 372.182 147.123C366.065 143.468 361.36 138.4 358.066 131.922C354.809 125.443 353.181 117.988 353.181 109.555C353.181 101.013 354.827 93.5213 358.12 87.0791C361.45 80.6007 366.174 75.5518 372.29 71.9326C378.407 68.2773 385.682 66.4502 394.114 66.4502ZM531.86 66.4502C536.493 66.4502 540.927 66.9924 545.161 68.0781C549.432 69.1639 553.214 70.8468 556.508 73.127C559.837 75.407 562.461 78.339 564.379 81.9219C566.297 85.4687 567.257 89.7214 567.257 94.6797V150.923H545.324V139.359H544.673C543.334 141.965 541.542 144.263 539.298 146.254C537.054 148.208 534.358 149.747 531.209 150.869C528.06 151.955 524.423 152.497 520.297 152.497C514.977 152.497 510.235 151.574 506.073 149.729C501.911 147.847 498.617 145.078 496.192 141.423C493.804 137.731 492.609 133.134 492.609 127.633C492.609 123 493.46 119.11 495.161 115.961C496.862 112.812 499.179 110.279 502.11 108.36C505.042 106.442 508.372 104.995 512.1 104.018C515.864 103.04 519.809 102.353 523.935 101.955C528.784 101.448 532.693 100.977 535.66 100.543C538.628 100.072 540.782 99.3853 542.121 98.4805C543.46 97.5757 544.13 96.2363 544.13 94.4629V94.1367C544.13 90.6986 543.044 88.0382 540.872 86.1562C538.737 84.2744 535.697 83.334 531.752 83.334C527.59 83.334 524.277 84.2567 521.816 86.1025C519.356 87.9121 517.727 90.192 516.931 92.9424L495.541 91.2051C496.627 86.1383 498.762 81.7589 501.947 78.0674C505.132 74.3397 509.24 71.4808 514.271 69.4902C519.337 67.4635 525.201 66.4502 531.86 66.4502ZM294.914 38.2197C304.722 38.2198 313.553 40.4635 321.406 44.9512C329.296 49.4028 335.522 55.8815 340.082 64.3867C344.678 72.8919 346.977 83.2067 346.977 95.3311C346.977 107.456 344.678 117.771 340.082 126.276C335.522 134.781 329.296 141.278 321.406 145.766C313.553 150.217 304.722 152.443 294.914 152.443C285.034 152.443 276.166 150.199 268.312 145.711C260.459 141.223 254.252 134.727 249.691 126.222C245.131 117.716 242.851 107.419 242.851 95.3311C242.851 83.2067 245.131 72.8919 249.691 64.3867C254.252 55.8815 260.459 49.4028 268.312 44.9512C276.166 40.4634 285.034 38.2197 294.914 38.2197ZM470.35 67.5352H486.039V84.9082H470.35V125.299C470.35 127.434 470.676 129.099 471.327 130.293C471.979 131.451 472.884 132.266 474.042 132.736C475.236 133.207 476.612 133.442 478.168 133.442C479.254 133.442 480.339 133.352 481.425 133.171C482.51 132.954 483.343 132.79 483.922 132.682L487.56 149.892C486.401 150.254 484.773 150.67 482.674 151.141C480.575 151.647 478.023 151.955 475.019 152.063C469.445 152.281 464.56 151.538 460.361 149.837C456.199 148.136 452.96 145.494 450.644 141.911C448.327 138.328 447.186 133.804 447.223 128.339V84.9082H435.822V67.5352H447.223V47.5576H470.35V67.5352ZM699.791 67.5352H715.48V84.9082H699.791V125.299C699.791 127.434 700.117 129.099 700.769 130.293C701.42 131.451 702.324 132.266 703.482 132.736C704.677 133.207 706.052 133.442 707.608 133.442C708.694 133.442 709.78 133.352 710.866 133.171C711.952 132.954 712.784 132.79 713.363 132.682L717.001 149.892C715.843 150.254 714.213 150.67 712.114 151.141C710.015 151.647 707.464 151.955 704.46 152.063C698.886 152.281 694 151.538 689.802 149.837C685.64 148.136 682.4 145.494 680.084 141.911C677.768 138.328 676.628 133.804 676.664 128.339V84.9082H665.264V67.5352H676.664V47.5576H699.791V67.5352ZM628.713 66.4502C634.504 66.4502 639.553 67.7166 643.859 70.25C648.166 72.7834 651.514 76.4026 653.902 81.1074C656.291 85.7763 657.485 91.3506 657.485 97.8291V150.923H634.358V101.479C634.312 96.6038 633.01 92.7806 630.45 90.0107C627.808 87.1154 624.171 85.668 619.538 85.668C616.426 85.668 613.675 86.3377 611.286 87.6768C608.934 89.0159 607.087 90.9704 605.748 93.54C604.445 96.0735 603.775 99.1319 603.739 102.715V150.923H580.612V67.5352H602.654V82.248H603.631C605.477 77.3983 608.571 73.5613 612.914 70.7383C617.257 67.8791 622.524 66.4502 628.713 66.4502ZM130.441 55.751C130.441 52.3166 128.943 52.058 126.004 52.3564C107.882 54.1964 93.0551 67.1826 88.4854 84.3506C84.1081 73.9259 73.803 66.6045 61.7881 66.6045C45.8037 66.6045 32.8459 79.5625 32.8457 95.5469C32.8458 111.531 45.8036 124.489 61.7881 124.489C73.8031 124.489 84.1081 117.168 88.4854 106.743C93.0551 123.911 107.882 136.896 126.004 138.736C129.728 139.114 130.441 138.47 130.441 134.438V117.141C130.441 113.762 131.584 110.018 136.994 110.018H147.372C149.605 110.018 149.696 109.969 150.964 108.178C151.016 108.105 156.408 100.574 157.483 98.9688C158.564 97.3556 158.451 96.9317 157.483 95.5469C156.515 94.1613 150.964 86.5 150.964 86.5C149.692 84.735 149.588 84.6934 147.372 84.6934H133.551C131.29 84.6934 130.441 85.8999 130.441 88.3115V100.86C130.441 103.918 130.441 106.4 126.004 106.4C119.555 106.4 116.056 101.541 116.056 95.5469C116.056 90.2891 119.951 84.9065 126.004 84.9062C130.074 84.9062 130.441 83.9329 130.441 81.9795V55.751ZM544.292 112.27C543.568 112.74 542.573 113.174 541.307 113.572C540.076 113.934 538.682 114.278 537.126 114.604C535.57 114.893 534.013 115.165 532.457 115.418C530.901 115.635 529.489 115.835 528.223 116.016C525.508 116.414 523.138 117.047 521.111 117.916C519.085 118.785 517.51 119.96 516.388 121.444C515.266 122.892 514.705 124.702 514.705 126.873C514.705 130.022 515.845 132.429 518.125 134.094C520.441 135.722 523.373 136.536 526.92 136.536C530.322 136.536 533.326 135.867 535.932 134.528C538.537 133.153 540.583 131.307 542.066 128.99C543.55 126.674 544.292 124.05 544.292 121.118V112.27ZM294.914 59.0127C289.232 59.0127 284.274 60.4057 280.039 63.1924C275.805 65.9792 272.511 70.0692 270.158 75.4619C267.842 80.8545 266.684 87.4775 266.684 95.3311C266.684 103.185 267.842 109.808 270.158 115.201C272.511 120.594 275.805 124.684 280.039 127.471C284.273 130.257 289.232 131.65 294.914 131.65C300.596 131.65 305.555 130.257 309.789 127.471C314.024 124.684 317.299 120.594 319.615 115.201C321.968 109.808 323.144 103.185 323.144 95.3311C323.144 87.4775 321.968 80.8545 319.615 75.4619C317.299 70.0693 314.024 65.9792 309.789 63.1924C305.555 60.4056 300.596 59.0127 294.914 59.0127ZM61.7881 85.8994C67.1161 85.8994 71.4353 90.2189 71.4355 95.5469C71.4354 100.875 67.1161 105.194 61.7881 105.194C56.46 105.194 52.1408 100.875 52.1406 95.5469C52.1408 90.2189 56.46 85.8994 61.7881 85.8994Z" fill="#FEFDF4"/>
</svg>
